<?xml version="1.0" encoding="iso-8859-1"?>
<!-- Uploaded to: SVG Repo, www.svgrepo.com, Generator: SVG Repo Mixer Tools -->
<!DOCTYPE svg PUBLIC "-//W3C//DTD SVG 1.1//EN" "http://www.w3.org/Graphics/SVG/1.1/DTD/svg11.dtd">
<svg fill="#000000" height="800px" width="800px" version="1.1" id="Capa_1" xmlns="http://www.w3.org/2000/svg" xmlns:xlink="http://www.w3.org/1999/xlink" 
	 viewBox="0 0 297 297" xml:space="preserve">
<path d="M271.392,48.566h-13.545c-0.015-15.214-0.621-29.389-10.252-39.036C241.192,3.117,232.019,0,219.549,0
	c-23.248,0-55.064,11.268-71.049,29.806C132.516,11.268,100.699,0,77.451,0c-12.47,0-21.644,3.117-28.045,9.53
	c-9.631,9.647-10.237,23.821-10.252,39.036H25.608c-5.54,0-10.031,4.491-10.031,10.031v228.37c0,5.54,4.491,10.032,10.031,10.032
	h245.783c5.54,0,10.031-4.492,10.031-10.032V58.598C281.423,53.058,276.932,48.566,271.392,48.566z M261.359,101.269h-76.493V68.63
	h76.493V101.269z M132.197,68.63h32.605v108.828l-10.735-7.161c-1.686-1.125-3.627-1.688-5.567-1.688
	c-1.94,0-3.882,0.563-5.567,1.688l-10.735,7.161V68.63z M219.549,20.063c6.775,0,11.434,1.226,13.847,3.642
	c4.038,4.045,4.375,13.942,4.387,24.861h-77.818C166.587,34.41,195.039,20.063,219.549,20.063z M63.606,23.705
	c2.411-2.416,7.069-3.642,13.845-3.642c24.51,0,52.962,14.347,59.585,28.503H59.22C59.231,37.646,59.567,27.75,63.606,23.705z
	 M112.134,68.63v32.639H35.641V68.63H112.134z M35.641,276.936V121.332h76.493v74.878c0,3.7,2.037,7.1,5.3,8.845
	c3.262,1.746,7.222,1.555,10.3-0.5l20.767-13.854l20.767,13.854c1.68,1.121,3.621,1.686,5.568,1.686
	c1.622,0,3.249-0.393,4.731-1.186c3.263-1.745,5.3-5.145,5.3-8.845v-74.878h76.493v155.604H35.641z"/>
</svg>